<?xml version="1.0" encoding="UTF-8" standalone="no"?>
<!-- Created with Inkscape (http://www.inkscape.org/) -->

<svg
   width="24"
   height="24"
   viewBox="0 0 6.3499999 6.35"
   version="1.1"
   id="svg5"
   xml:space="preserve"
   preserveAspectRatio="none"
   xmlns="http://www.w3.org/2000/svg"
   xmlns:svg="http://www.w3.org/2000/svg"><defs
     id="defs2" /><g
     id="layer1"><path
       id="rect431"
       style="opacity:1;fill:#ffffff;fill-opacity:1;fill-rule:evenodd;stroke-width:0.264583"
       d="M 1.9358256,0 C 0.86337929,0 0,0.86337936 0,1.9358258 v 2.4783485 c 0,1.0724465 0.86337929,1.9358259 1.9358256,1.9358259 h 2.4783482 c 1.072447,0 1.9358263,-0.8633794 1.9358263,-1.9358259 V 1.9358258 C 6.3500001,0.86337936 5.4866208,0 4.4141738,0 Z m -0.01278,0.56793039 h 2.5039458 c 0.7507124,0 1.3550778,0.60436561 1.3550778,1.35507811 v 2.5039453 c 0,0.7507126 -0.6043654,1.3550781 -1.3550778,1.3550781 H 1.9230458 c -0.7507124,0 -1.3550778,-0.6043655 -1.3550778,-1.3550781 V 1.9230085 c 0,-0.7507125 0.6043654,-1.35507811 1.3550776,-1.35507811 z" /><path
       id="circle1081"
       style="fill:#ffffff;fill-opacity:1;fill-rule:evenodd;stroke-width:0.264584"
       d="M 3.1739666 1.5275554 A 1.6462141 1.6462141 0 0 0 1.5280722 3.1739666 A 1.6462141 1.6462141 0 0 0 3.1739666 4.8203778 A 1.6462141 1.6462141 0 0 0 4.8203778 3.1739666 A 1.6462141 1.6462141 0 0 0 3.1739666 1.5275554 z M 3.1739666 2.1089153 A 1.0649687 1.0649687 0 0 1 4.2390179 3.1739666 A 1.0649687 1.0649687 0 0 1 3.1739666 4.2390179 A 1.0649687 1.0649687 0 0 1 2.1089153 3.1739666 A 1.0649687 1.0649687 0 0 1 3.1739666 2.1089153 z " /><circle
       style="fill:#ffffff;fill-opacity:1;fill-rule:evenodd;stroke-width:0.264584"
       id="ellipse1073"
       cx="4.8648767"
       cy="1.4840943"
       r="0.38411662" /></g></svg>
